<svg xmlns="http://www.w3.org/2000/svg" viewBox="0 0 1254 1254">
  <defs><path id="approved-contour" d="M 989.5221 653.9120 C 993.4501 677.7606 994.1686 702.4044 991.3498 726.7614 C 988.5310 751.1185 982.1750 775.1888 972.4625 797.7863 C 962.7501 820.3837 949.6812 841.5083 934.3921 860.5842 C 919.1031 879.6601 901.5939 896.6872 882.5561 911.3380 C 863.5182 925.9888 842.9519 938.2632 821.7357 948.2061 C 800.5196 958.1489 778.6538 965.7603 756.6965 971.5648 C 734.7392 977.3693 712.6904 981.3670 690.7438 983.8870 C 668.7972 986.4070 646.9529 987.4494 625.1130 987.4689 C 603.2730 987.4884 581.4375 986.4852 559.4599 984.0395 C 537.4822 981.5937 515.3624 977.7055 493.4229 971.8354 C 471.4833 965.9654 449.7240 958.1135 428.5886 948.0537 C 407.4533 937.9939 386.9418 925.7261 367.8993 911.1231 C 348.8568 896.5200 331.2833 879.5816 315.6806 860.6790 C 300.0779 841.7764 286.4461 820.9098 276.4642 798.3430 C 266.4823 775.7763 260.1504 751.5096 257.5505 727.0124 C 254.9506 702.5153 256.0827 677.7878 260.3246 653.9161 C 264.5665 630.0444 271.9181 607.0286 281.3793 585.5343 C 283.9023 579.8024 286.5753 574.1788 289.3977 568.6584 C 291.9849 563.5980 294.6975 558.6244 297.0660 553.6166 C 297.7119 552.2508 298.3322 550.8825 298.3292 549.3091 C 298.3261 547.7358 297.6996 545.9574 297.0847 544.1618 C 296.0600 541.1693 295.0676 538.1292 294.0699 535.0484 C 291.8748 528.2706 289.6538 521.2958 287.5094 514.0870 C 283.0255 499.0139 278.8761 482.9173 275.3480 465.9525 C 271.9733 449.7253 269.1669 432.7038 267.1637 414.7769 C 263.0664 378.1083 262.3294 337.6521 272.0440 300.8481 C 274.6346 291.0337 277.9683 281.4790 288.4102 280.0142 C 297.9819 278.6715 313.5263 284.1265 331.8695 294.9706 C 336.8722 297.9281 342.0831 301.2865 347.9607 305.5281 C 351.8791 308.3558 356.0938 311.5761 360.2722 314.8986 C 362.3615 316.5599 364.4417 318.2468 366.5804 320.0171 C 372.9965 325.3283 379.9394 331.3913 388.2392 339.5589 C 393.7725 345.0039 399.9088 351.3842 405.4086 357.0015 C 408.1585 359.8102 410.7493 362.4281 413.8124 365.7298 C 416.8755 369.0314 420.4109 373.0169 423.1452 375.9274 C 425.8795 378.8380 427.8126 380.6737 429.6908 382.4513 C 435.3256 387.7842 440.4671 392.5947 445.2770 397.0775 C 446.8803 398.5718 448.4468 400.0297 450.3232 401.9537 C 452.1996 403.8776 454.3859 406.2677 455.8142 407.5755 C 457.2425 408.8834 457.9127 409.1090 458.4868 409.1920 C 459.6350 409.3582 460.3987 408.9540 461.1628 408.5520 C 478.3558 399.5053 495.7978 391.4971 513.7106 384.9754 C 549.5362 371.9319 587.2451 364.8342 625.1087 364.6576 C 644.0404 364.5692 663.0109 366.2112 681.6685 369.6235 C 700.3262 373.0358 718.6710 378.2185 736.6113 384.7456 C 754.5516 391.2727 772.0873 399.1444 789.2347 408.2932 C 790.3778 408.9031 791.5193 409.5187 793.7097 408.6125 C 794.4399 408.3104 795.2866 407.8393 796.8060 406.4195 C 798.3254 404.9997 800.5174 402.6314 802.3891 400.7403 C 804.2608 398.8493 805.8121 397.4355 807.4835 395.8687 C 810.8263 392.7352 814.6494 388.9897 818.0022 385.9732 C 819.6786 384.4649 821.2375 383.1388 823.4188 380.9755 C 827.7816 376.6488 834.6347 368.9729 840.9982 362.1486 C 844.1800 358.7364 847.2394 355.5372 850.1908 352.5075 C 867.8994 334.3295 881.7224 322.2570 894.1398 312.6442 C 904.4876 304.6335 913.8594 298.3310 922.1571 293.5937 C 932.1144 287.9090 940.5251 284.4782 948.2143 282.2071 C 954.6220 280.3145 960.5287 279.2271 965.1293 279.6241 C 975.2505 280.4975 979.0498 288.5551 981.5374 297.5029 C 984.2510 307.2642 985.4034 318.0849 986.1725 328.8060 C 986.8775 338.6337 987.2604 348.3776 987.2389 358.0563 C 987.1960 377.4137 985.5353 396.5103 983.1845 414.6598 C 978.3763 451.7838 970.6811 484.9454 962.1862 514.2961 C 959.9209 522.1230 957.5987 529.6789 955.2528 537.0086 C 954.6664 538.8411 954.0784 540.6594 953.4107 542.4784 C 952.7430 544.2974 951.9956 546.1172 951.7958 547.7581 C 951.4628 550.4928 952.6510 552.7307 953.8389 554.9806 C 959.0656 564.8803 964.2870 575.0132 968.9398 585.5196 C 978.4567 607.0100 985.5941 630.0634 989.5221 653.9120 Z"/></defs>
  <g transform="translate(627 627) scale(1.225255412) translate(-627 -627)" fill="none" stroke-linecap="round" stroke-linejoin="round">
    <use href="#approved-contour" stroke="#F56A79" stroke-width="140.725761"/>
    <use href="#approved-contour" stroke="#FFF3EF" stroke-width="46.055704"/>
  </g>
</svg>
