<?xml version="1.0" standalone="no"?>
<!DOCTYPE svg PUBLIC "-//W3C//DTD SVG 20010904//EN"
 "http://www.w3.org/TR/2001/REC-SVG-20010904/DTD/svg10.dtd">
<svg version="1.0" xmlns="http://www.w3.org/2000/svg"
 width="512.000000pt" height="512.000000pt" viewBox="0 0 512.000000 512.000000"
 preserveAspectRatio="xMidYMid meet">
<metadata>
Created by potrace 1.14, written by Peter Selinger 2001-2017
</metadata>
<g transform="translate(0.000000,512.000000) scale(0.100000,-0.100000)"
fill="#000000" stroke="none">
<path d="M2220 4753 c-40 -13 -60 -29 -73 -57 -12 -26 -15 -125 -15 -571 0
-297 4 -569 9 -605 19 -145 78 -291 164 -404 33 -45 44 -68 43 -93 -1 -18 -4
-33 -7 -34 -3 0 -33 -2 -66 -4 -202 -11 -397 -61 -581 -150 -89 -43 -221 -126
-279 -175 -61 -52 -130 -116 -156 -145 -15 -16 -42 -46 -59 -65 -96 -106 -219
-329 -273 -495 -55 -168 -70 -280 -71 -530 0 -126 3 -249 6 -273 58 -349 306
-616 653 -702 l90 -23 1305 0 1305 0 56 22 c75 29 138 86 174 157 26 51 30 70
30 139 -1 65 -6 91 -26 135 -33 69 -87 123 -158 157 l-56 27 -296 2 c-163 0
-300 4 -305 7 -5 3 -8 420 -7 995 l1 991 47 65 c62 87 110 188 137 289 23 81
23 91 23 682 0 596 0 601 -21 623 -25 27 -69 40 -107 33 -19 -4 -102 -81 -267
-245 l-239 -239 -203 -1 c-112 -1 -211 2 -221 7 -10 5 -124 114 -253 243 -129
129 -240 234 -248 234 -8 0 -20 2 -28 4 -7 3 -20 2 -28 -1z"/>
</g>
</svg>
