<?xml version="1.0" standalone="no"?>
<!DOCTYPE svg PUBLIC "-//W3C//DTD SVG 20010904//EN"
 "http://www.w3.org/TR/2001/REC-SVG-20010904/DTD/svg10.dtd">
<svg version="1.0" xmlns="http://www.w3.org/2000/svg"
 width="313.000000pt" height="313.000000pt" viewBox="0 0 313.000000 313.000000"
 preserveAspectRatio="xMidYMid meet">
<metadata>
Created by potrace 1.14, written by Peter Selinger 2001-2017
</metadata>
<g transform="translate(0.000000,313.000000) scale(0.100000,-0.100000)"
fill="#000000" stroke="none">
<path d="M1918 3083 c-14 -16 -31 -39 -38 -52 -21 -41 -68 -184 -100 -307 -17
-65 -49 -182 -70 -259 -21 -77 -44 -167 -50 -200 -21 -117 -8 -105 -113 -105
l-93 0 -28 72 c-35 88 -128 294 -202 443 -137 280 -225 392 -291 371 -39 -12
-122 -173 -138 -268 -3 -17 -8 -34 -10 -37 -2 -4 -11 -51 -20 -106 -9 -55 -18
-111 -21 -125 -2 -14 -6 -35 -8 -48 -3 -13 -7 -58 -10 -100 -3 -42 -8 -88 -11
-102 -9 -41 -6 -219 3 -238 5 -9 12 -44 15 -77 4 -33 13 -93 22 -133 l16 -74
-31 -53 c-17 -30 -28 -60 -24 -69 3 -9 -1 -32 -10 -51 -18 -37 -23 -105 -12
-146 12 -43 -9 -50 -89 -28 -104 29 -104 29 -187 34 -44 3 -78 2 -78 -3 0 -5
28 -10 63 -10 51 0 144 -19 278 -58 9 -2 16 -12 16 -22 -2 -28 14 -86 28 -102
7 -8 16 -25 19 -38 4 -12 16 -27 27 -32 32 -18 21 -27 -38 -33 -32 -3 -74 -8
-93 -11 -19 -3 -55 -8 -80 -11 -45 -6 -74 -10 -120 -20 -14 -3 -38 -8 -55 -11
-16 -3 -34 -10 -40 -15 -11 -12 9 -9 140 16 111 22 200 35 266 41 l56 4 69
-68 c53 -51 93 -79 164 -114 52 -26 114 -50 138 -53 23 -4 42 -11 42 -15 0 -5
20 -12 45 -16 25 -3 45 -10 45 -14 0 -5 -18 -16 -40 -26 -24 -11 -35 -21 -28
-25 6 -4 18 -5 27 -2 10 3 8 -3 -7 -15 -12 -12 -18 -23 -13 -26 23 -15 -4 -46
-62 -71 -158 -69 -172 -80 -168 -127 1 -10 -3 -18 -9 -18 -33 0 -162 -173
-184 -248 -14 -45 -25 -63 -48 -76 -16 -10 -36 -33 -45 -51 -14 -28 -14 -38
-3 -64 7 -17 16 -31 21 -31 5 0 14 -11 19 -25 l10 -26 22 21 c12 11 30 20 40
20 11 0 32 7 48 15 31 16 46 12 102 -27 13 -10 21 -6 45 22 15 18 31 37 34 43
4 5 15 4 29 -3 12 -6 33 -9 46 -6 17 5 26 2 30 -8 3 -8 12 -12 20 -9 12 4 14
15 9 44 -5 29 -3 39 7 40 7 0 22 2 33 4 11 2 40 7 65 10 25 3 90 12 145 20
104 14 169 23 220 29 25 3 169 27 255 42 143 25 160 26 176 10 8 -9 26 -16 39
-16 13 0 25 -5 27 -12 3 -8 17 -4 44 12 21 13 41 27 44 31 8 10 110 3 122 -9
9 -9 16 -4 30 19 16 27 23 30 49 25 17 -3 37 -13 45 -21 9 -8 20 -13 24 -10
16 10 23 75 12 100 -10 21 -72 64 -72 50 0 -3 -19 5 -42 19 -36 21 -55 25
-123 24 -61 -1 -88 -5 -113 -21 -18 -10 -34 -18 -36 -16 -2 2 -11 20 -21 39
-24 47 -84 127 -125 168 -19 17 -28 32 -22 32 7 0 12 5 12 10 0 6 -11 10 -24
10 -13 0 -29 7 -36 15 -7 8 -19 15 -26 15 -8 0 -14 5 -14 10 0 6 -6 10 -14 10
-19 0 -40 26 -26 35 15 9 12 25 -4 25 -17 0 -28 40 -15 56 5 7 25 15 43 18 71
14 265 133 334 206 18 19 40 52 49 72 13 29 23 38 42 39 14 0 49 2 76 5 70 7
203 12 313 13 50 1 92 5 92 10 0 4 -10 7 -22 5 -13 -2 -113 -5 -223 -8 -110
-3 -212 -7 -227 -10 l-26 -6 18 47 c10 27 21 66 24 89 7 37 12 43 55 62 146
66 235 101 304 117 78 18 104 31 45 22 -69 -10 -153 -35 -213 -62 -16 -7 -47
-20 -67 -29 -21 -9 -54 -23 -73 -31 l-34 -15 1 43 c1 39 -27 153 -67 272 -20
59 -29 80 -55 122 -18 31 -18 33 -1 95 33 118 35 386 3 493 -12 39 -23 81 -25
95 -33 181 -141 488 -195 550 -24 28 -63 25 -94 -7z"/>
</g>
</svg>
