<?xml version="1.0" standalone="no"?>
<!DOCTYPE svg PUBLIC "-//W3C//DTD SVG 20010904//EN"
 "http://www.w3.org/TR/2001/REC-SVG-20010904/DTD/svg10.dtd">
<svg version="1.0" xmlns="http://www.w3.org/2000/svg"
 width="512.000000pt" height="512.000000pt" viewBox="0 0 512.000000 512.000000"
 preserveAspectRatio="xMidYMid meet">
<metadata>
Created by potrace 1.14, written by Peter Selinger 2001-2017
</metadata>
<g transform="translate(0.000000,512.000000) scale(0.100000,-0.100000)"
fill="#000000" stroke="none">
<path d="M993 4254 c-59 -22 -118 -89 -131 -150 -6 -32 -9 -642 -8 -1739 l1
-1690 26 -56 c80 -170 281 -239 445 -154 45 23 110 92 132 139 34 70 37 123
36 548 l0 407 70 25 c157 56 232 76 386 101 155 26 421 26 580 0 14 -2 41 -7
60 -10 77 -12 210 -48 300 -81 l96 -35 1 -437 c1 -482 1 -480 65 -565 63 -84
149 -127 253 -127 129 0 238 70 293 188 l27 57 3 705 c1 388 3 716 5 729 2 22
7 25 44 27 23 1 61 4 85 8 24 4 48 7 53 8 25 3 145 48 195 73 212 106 374 306
442 542 21 76 22 94 26 670 3 522 1 595 -13 622 -24 47 -75 67 -126 49 -14 -5
-133 -116 -263 -246 l-237 -237 -213 1 -214 2 -241 241 c-159 159 -249 242
-264 243 -65 4 -100 -12 -120 -56 -11 -25 -14 -118 -16 -475 0 -245 -3 -446
-5 -448 -2 -2 -29 3 -60 11 -57 15 -73 18 -221 41 -82 12 -408 13 -500 0 -130
-17 -337 -72 -470 -125 -16 -6 -32 -12 -35 -13 -3 0 -47 -22 -99 -49 -51 -26
-95 -48 -97 -48 -2 0 -5 264 -6 588 l-3 587 -32 47 c-54 77 -162 113 -250 82z"/>
</g>
</svg>
